<svg width="48" height="48" viewBox="0 0 48 48" fill="none" xmlns="http://www.w3.org/2000/svg">
<rect width="48" height="48" fill="#4E4E4E"/>
<g clip-path="url(#clip0_0_1)">
<rect width="1440" height="11182" transform="translate(-1312 -9603)" fill="white"/>
<rect x="-1312" y="-77" width="1440" height="874" rx="50" fill="#F9F9F9"/>
<circle cx="24" cy="24" r="24" fill="#EAC26A"/>
<path d="M27.6984 19.1897C27.8731 19.191 28.0402 19.2611 28.1634 19.385C28.2866 19.5088 28.3559 19.6763 28.3563 19.851L28.3404 26.0735C28.3433 26.1621 28.3284 26.2503 28.2964 26.333C28.2645 26.4157 28.2162 26.4911 28.1545 26.5547C28.0928 26.6183 28.0189 26.6688 27.9372 26.7033C27.8555 26.7377 27.7677 26.7553 27.6791 26.7551C27.5905 26.7549 27.5028 26.7368 27.4213 26.7019C27.3398 26.6671 27.2662 26.6162 27.2048 26.5523C27.1434 26.4883 27.0955 26.4127 27.064 26.3299C27.0324 26.247 27.0179 26.1587 27.0213 26.0701L27.0331 21.4406L20.6762 27.7652C20.5521 27.8886 20.384 27.9577 20.209 27.9573C20.0339 27.9568 19.8662 27.8869 19.7428 27.7628C19.6193 27.6387 19.5502 27.4706 19.5507 27.2956C19.5511 27.1206 19.6211 26.9529 19.7452 26.8294L26.1021 20.5048L21.4725 20.493C21.3016 20.4865 21.1399 20.414 21.0215 20.2907C20.903 20.1673 20.837 20.0028 20.8375 19.8318C20.8379 19.6608 20.9047 19.4966 21.0238 19.3739C21.1429 19.2512 21.305 19.1794 21.4759 19.1738L27.6984 19.1897Z" fill="#202020"/>
</g>
<defs>
<clipPath id="clip0_0_1">
<rect width="1440" height="11182" fill="white" transform="translate(-1312 -9603)"/>
</clipPath>
</defs>
</svg>
