<svg width="56" height="56" viewBox="0 0 56 56" fill="none" xmlns="http://www.w3.org/2000/svg">
<rect width="56" height="56" fill="#4E4E4E"/>
<g clip-path="url(#clip0_0_1)">
<rect width="1440" height="11182" transform="translate(-1303 -10541)" fill="white"/>
<rect x="-1303" y="-82" width="1440" height="723" fill="#202020"/>
<circle cx="28" cy="28" r="28" fill="#EAC26A"/>
<path d="M32.315 22.3888C32.5188 22.3903 32.7137 22.4721 32.8575 22.6166C33.0012 22.7611 33.0821 22.9565 33.0825 23.1603L33.064 30.4199C33.0674 30.5232 33.0499 30.6262 33.0127 30.7227C32.9754 30.8191 32.9191 30.9071 32.847 30.9813C32.775 31.0555 32.6888 31.1145 32.5935 31.1546C32.4983 31.1948 32.3959 31.2154 32.2925 31.2151C32.1891 31.2148 32.0868 31.1937 31.9917 31.1531C31.8966 31.1124 31.8107 31.053 31.7391 30.9785C31.6674 30.9039 31.6116 30.8156 31.5748 30.719C31.538 30.6224 31.5211 30.5193 31.525 30.416L31.5387 25.0148L24.1223 32.3935C23.9776 32.5375 23.7815 32.6182 23.5773 32.6176C23.3731 32.6171 23.1774 32.5355 23.0334 32.3907C22.8894 32.246 22.8087 32.0499 22.8093 31.8457C22.8098 31.6415 22.8914 31.4458 23.0362 31.3018L30.4526 23.9231L25.0514 23.9093C24.8521 23.9018 24.6634 23.8171 24.5252 23.6733C24.387 23.5294 24.3101 23.3374 24.3106 23.1379C24.3111 22.9384 24.389 22.7469 24.5279 22.6037C24.6669 22.4605 24.8559 22.3768 25.0554 22.3703L32.315 22.3888Z" fill="#202020"/>
</g>
<defs>
<clipPath id="clip0_0_1">
<rect width="1440" height="11182" fill="white" transform="translate(-1303 -10541)"/>
</clipPath>
</defs>
</svg>
