<svg width="74" height="74" viewBox="0 0 74 74" fill="none" xmlns="http://www.w3.org/2000/svg">
<rect width="74" height="74" fill="#4E4E4E"/>
<g clip-path="url(#clip0_0_1)">
<rect width="1440" height="11182" transform="translate(-608 -8455)" fill="white"/>
<rect x="-528" y="-33" width="630" height="667" rx="30" fill="#1AAC98"/>
<circle cx="37" cy="37" r="37" fill="#EAC26A"/>
<path d="M41.6861 31.3388C41.9069 31.3403 42.1182 31.4291 42.274 31.5856C42.4298 31.7422 42.5174 31.9539 42.5178 32.1748L42.4978 40.0416C42.5015 40.1535 42.4825 40.2651 42.4421 40.3697C42.4017 40.4742 42.3407 40.5695 42.2627 40.6499C42.1847 40.7303 42.0912 40.7942 41.988 40.8377C41.8847 40.8813 41.7738 40.9035 41.6617 40.9033C41.5497 40.903 41.4388 40.8801 41.3358 40.8361C41.2327 40.792 41.1396 40.7277 41.062 40.6468C40.9844 40.566 40.9239 40.4704 40.884 40.3657C40.8441 40.261 40.8258 40.1493 40.83 40.0373L40.8449 34.1844L32.8082 42.1802C32.6514 42.3363 32.4389 42.4237 32.2176 42.4231C31.9963 42.4226 31.7843 42.3341 31.6282 42.1772C31.4721 42.0203 31.3848 41.8079 31.3853 41.5866C31.3859 41.3653 31.4744 41.1533 31.6312 40.9972L39.6679 33.0014L33.815 32.9865C33.599 32.9783 33.3946 32.8866 33.2448 32.7306C33.095 32.5747 33.0117 32.3667 33.0122 32.1505C33.0128 31.9343 33.0972 31.7268 33.2478 31.5716C33.3983 31.4164 33.6032 31.3258 33.8193 31.3187L41.6861 31.3388Z" fill="#202020"/>
</g>
<defs>
<clipPath id="clip0_0_1">
<rect width="1440" height="11182" fill="white" transform="translate(-608 -8455)"/>
</clipPath>
</defs>
</svg>
