<svg width="59" height="58" viewBox="0 0 59 58" fill="none" xmlns="http://www.w3.org/2000/svg">
<rect width="59" height="58" fill="#4E4E4E"/>
<g clip-path="url(#clip0_0_1)">
<rect width="1440" height="11182" transform="translate(-1005 -2627)" fill="white"/>
<circle cx="29.5" cy="29" r="29" fill="#1AAC98" fill-opacity="0.1"/>
<path d="M26.1667 27.6667L24.1667 37.0001M32.8334 27.6667L34.8334 37.0001M18.8334 32.3334H40.1667M32.6107 20.3334C32.6107 21.1584 32.283 21.9496 31.6996 22.533M32.6107 20.3334C32.6107 19.5084 32.283 18.7172 31.6996 18.1338M32.6107 20.3334H34.1667M31.6996 22.533C31.1162 23.1164 30.325 23.4441 29.5 23.4441M31.6996 22.533L32.8 23.6334M29.5 23.4441C28.675 23.4441 27.8838 23.1164 27.3004 22.533M29.5 23.4441V25.0001M31.6996 18.1338C31.1162 17.5505 30.325 17.2227 29.5 17.2227M31.6996 18.1338L32.8 17.0334M29.5 17.2227C28.675 17.2227 27.8838 17.5505 27.3004 18.1338M29.5 17.2227V15.6667M27.3004 22.533C26.7171 21.9496 26.3894 21.1584 26.3894 20.3334M27.3004 22.533L26.2 23.6334M26.3894 20.3334C26.3894 19.5084 26.7171 18.7172 27.3004 18.1338M26.3894 20.3334H24.8334M27.3004 18.1338L26.2 17.0334M33.5 42.3334C32.0867 40.7694 32.1667 38.3334 32.1667 37.0001M25.5 42.3334C26.9134 40.7694 26.8334 38.3334 26.8334 37.0001M16.1667 42.3334H42.8334M17.4867 33.4361L18.908 29.4361C19.2134 28.5814 19.3654 28.1534 19.708 27.9107C20.0547 27.6667 20.5067 27.6667 21.412 27.6667H37.5907C38.496 27.6667 38.948 27.6667 39.292 27.9107C39.636 28.1534 39.788 28.5814 40.092 29.4361L41.516 33.4361C42.0934 35.0587 42.3827 35.8694 41.984 36.4347C41.588 37.0001 40.7307 37.0001 39.0147 37.0001H19.9867C18.272 37.0001 17.4134 37.0001 17.0174 36.4347C16.62 35.8694 16.9094 35.0587 17.4867 33.4361Z" stroke="#1AAC98" stroke-width="2" stroke-linecap="round" stroke-linejoin="round"/>
</g>
<defs>
<clipPath id="clip0_0_1">
<rect width="1440" height="11182" fill="white" transform="translate(-1005 -2627)"/>
</clipPath>
</defs>
</svg>
