<svg width="59" height="58" viewBox="0 0 59 58" fill="none" xmlns="http://www.w3.org/2000/svg">
<rect width="59" height="58" fill="#4E4E4E"/>
<g clip-path="url(#clip0_0_1)">
<rect width="1440" height="11182" transform="translate(-1005 -2903)" fill="white"/>
<circle cx="29.5" cy="29" r="29" fill="#1AAC98" fill-opacity="0.1"/>
<path d="M18.1666 21.9734C16.8555 24.0823 16.1625 26.5168 16.1666 29.0001C16.1666 36.3641 22.136 42.3334 29.5 42.3334C30.8566 42.3345 32.2055 42.1286 33.5 41.7228M40.6373 36.3334C42.074 34.1579 42.8378 31.6072 42.8333 29.0001C42.8333 21.6361 36.864 15.6668 29.5 15.6668C28.1433 15.6656 26.7945 15.8716 25.5 16.2774" stroke="#1AAC98" stroke-width="2" stroke-linecap="round" stroke-linejoin="round"/>
<path d="M20.1667 22.3333C21.6394 22.3333 22.8333 21.1394 22.8333 19.6667C22.8333 18.1939 21.6394 17 20.1667 17C18.6939 17 17.5 18.1939 17.5 19.6667C17.5 21.1394 18.6939 22.3333 20.1667 22.3333Z" stroke="#1AAC98" stroke-width="2" stroke-linecap="round" stroke-linejoin="round"/>
<path d="M38.8333 41.0001C40.3061 41.0001 41.5 39.8062 41.5 38.3334C41.5 36.8607 40.3061 35.6667 38.8333 35.6667C37.3605 35.6667 36.1666 36.8607 36.1666 38.3334C36.1666 39.8062 37.3605 41.0001 38.8333 41.0001Z" stroke="#1AAC98" stroke-width="2" stroke-linecap="round" stroke-linejoin="round"/>
<path d="M24.1667 35.6668C25.6394 35.6668 26.8333 34.4729 26.8333 33.0002C26.8333 31.5274 25.6394 30.3335 24.1667 30.3335C22.6939 30.3335 21.5 31.5274 21.5 33.0002C21.5 34.4729 22.6939 35.6668 24.1667 35.6668Z" stroke="#1AAC98" stroke-width="2" stroke-linecap="round" stroke-linejoin="round"/>
<path d="M29.4999 35.6668C30.8756 35.6666 32.2176 35.2407 33.3417 34.4476C34.4658 33.6546 35.3171 32.5332 35.7787 31.2373C36.2403 29.9413 36.2898 28.5343 35.9202 27.2092C35.5506 25.8841 34.7801 24.7057 33.7144 23.8358C32.6487 22.9658 31.34 22.4468 29.9677 22.35C28.5954 22.2532 27.2268 22.5833 26.0495 23.2951C24.8722 24.0068 23.9439 25.0653 23.392 26.3254C22.8401 27.5856 22.6915 28.9856 22.9666 30.3335M29.5119 29.0002H29.4999" stroke="#1AAC98" stroke-width="2" stroke-linecap="round" stroke-linejoin="round"/>
</g>
<defs>
<clipPath id="clip0_0_1">
<rect width="1440" height="11182" fill="white" transform="translate(-1005 -2903)"/>
</clipPath>
</defs>
</svg>
