<svg width="26" height="26" viewBox="0 0 26 26" fill="none" xmlns="http://www.w3.org/2000/svg">
<path d="M0.400002 12.5C0.406136 10.9598 0.718926 9.43628 1.32012 8.01827C1.92132 6.60025 2.79889 5.31616 3.90163 4.24091C5.00436 3.16566 6.31019 2.32077 7.74292 1.75555C9.17565 1.19033 10.7066 0.916084 12.2464 0.948818C13.7863 0.981552 15.3042 1.32061 16.7116 1.94621C18.119 2.57181 19.3878 3.47142 20.4438 4.59256C21.4999 5.71371 22.3221 7.03393 22.8625 8.47621C23.4029 9.91849 23.6506 11.4539 23.5913 12.993C23.3245 12.9205 23.0113 12.8378 22.6691 12.761C21.1034 12.4019 19.4869 12.3195 17.8928 12.5174C17.0651 12.6153 16.2522 12.812 15.4713 13.1032C15.4328 12.8375 15.3795 12.5742 15.3118 12.3144C15.1262 11.6024 14.6738 11.0268 14.204 10.4294L13.9967 10.1669C13.7647 9.86825 13.4718 9.47385 13.3645 9.05045C13.2939 8.78872 13.3065 8.5115 13.4007 8.2573C13.5051 7.9818 13.6951 7.7701 13.9111 7.6077C14.5317 7.1437 15.5453 6.13885 16.4385 5.2123C16.8764 4.757 17.2737 4.33215 17.5608 4.0204L17.5695 4.0117C15.8108 2.85537 13.7349 2.27698 11.6317 2.35725C11.8014 2.67915 11.9971 3.08805 12.1711 3.5506C12.5786 4.6323 12.9353 6.18525 12.2944 7.5497C11.7086 8.7967 10.7037 9.1215 9.92795 9.3216L9.7873 9.35785C9.0536 9.54635 8.69255 9.63915 8.4388 10.0248C8.1923 10.3975 8.2532 10.8572 8.49245 11.6387L8.549 11.8185C8.6447 12.1244 8.75635 12.4811 8.81435 12.8161C8.88685 13.2308 8.9028 13.7383 8.6505 14.2226C8.43208 14.6665 8.08292 15.0329 7.65 15.2724C7.31049 15.4444 6.94508 15.5595 6.5683 15.6131L6.4407 15.6349C5.8491 15.7393 5.50545 15.7987 5.18355 16.1438C4.92545 16.4193 4.77755 16.8805 4.6949 17.5083C4.66285 17.7657 4.63771 18.0239 4.6195 18.2826L4.6079 18.4203C4.58761 18.7148 4.54936 19.0078 4.49335 19.2976L4.48755 19.3266C5.96814 20.9567 7.93871 22.0611 10.102 22.4731C9.83322 22.9023 9.58479 23.3441 9.35665 23.7984C6.80794 23.2019 4.53589 21.761 2.9098 19.7097C1.28372 17.6585 0.399192 15.1176 0.400002 12.5ZM24.9413 15.0187C24.8763 14.9136 24.7856 14.8269 24.6778 14.7668C24.5699 14.7067 24.4485 14.6751 24.325 14.675H24.3134L24.2757 14.6692L24.1438 14.6445C23.9983 14.6106 23.8537 14.5729 23.7102 14.5314L23.5725 14.4923C23.1689 14.3759 22.7623 14.2705 22.353 14.1762C20.95 13.8533 19.5013 13.7787 18.0726 13.9558C16.3297 14.1733 14.9972 14.7634 14.088 15.6117C13.1745 16.4643 12.725 17.5489 12.725 18.6567C12.726 18.9216 12.7443 19.1729 12.7801 19.4107C14.3026 18.081 16.1804 17.0066 18.2553 16.1772C18.3441 16.1394 18.4395 16.1198 18.536 16.1194C18.6325 16.119 18.728 16.1379 18.8171 16.1749C18.9062 16.2119 18.987 16.2663 19.0548 16.335C19.1226 16.4036 19.176 16.4851 19.2119 16.5746C19.2478 16.6642 19.2655 16.76 19.2639 16.8565C19.2623 16.9529 19.2414 17.0481 19.2026 17.1364C19.1637 17.2247 19.1076 17.3044 19.0376 17.3707C18.9676 17.4371 18.885 17.4888 18.7947 17.5228C17.6875 17.9614 16.621 18.4966 15.6076 19.1222C13.2122 20.5199 11.7202 22.3151 10.6269 24.5017C10.5478 24.6727 10.5385 24.8678 10.6009 25.0456C10.6632 25.2233 10.7923 25.3699 10.9608 25.4541C11.1293 25.5384 11.324 25.5538 11.5036 25.4969C11.6833 25.4401 11.8337 25.3156 11.9232 25.1498C12.48 24.0377 13.1455 23.0386 14.0228 22.1512C14.0518 22.2053 14.0856 22.2648 14.1243 22.3295C14.3354 22.6867 14.5843 23.0202 14.8667 23.3242C15.5409 24.0507 16.627 24.825 18.1625 24.825C19.1079 24.825 19.8938 24.5829 20.5376 24.1638C21.1756 23.7491 21.6367 23.185 21.9818 22.592C22.5169 21.6785 22.8214 20.591 23.0476 19.7848C23.1046 19.5808 23.1573 19.3986 23.2056 19.2381C23.4459 18.4889 23.7667 17.7678 24.1626 17.0878C24.3337 16.7876 24.4947 16.5266 24.6324 16.3019L24.6571 16.2642C24.7774 16.0684 24.8992 15.8727 24.9732 15.7233C25.0283 15.6129 25.0543 15.4902 25.0487 15.3669C25.0431 15.2435 25.0061 15.1237 24.9413 15.0187Z" fill="#EAC26A"/>
</svg>
