<svg width="1287" height="94" viewBox="0 0 1287 94" fill="none" xmlns="http://www.w3.org/2000/svg">
<g style="mix-blend-mode:overlay">
<path d="M1225.28 61.127C1229.71 63.997 1234.1 66.252 1238.44 67.892C1242.79 69.532 1246.85 70.352 1250.62 70.352C1254.23 70.352 1256.97 69.86 1258.86 68.876C1260.75 67.81 1261.69 66.252 1261.69 64.202C1261.69 63.136 1261.28 62.316 1260.46 61.742C1259.64 61.086 1258.53 60.553 1257.14 60.143C1255.83 59.733 1254.27 59.405 1252.46 59.159C1250.66 58.913 1248.82 58.585 1246.93 58.175C1245.13 57.847 1242.99 57.478 1240.53 57.068C1238.16 56.576 1235.7 55.92 1233.15 55.1C1230.61 54.198 1228.07 53.091 1225.53 51.779C1223.07 50.467 1220.85 48.786 1218.89 46.736C1216.92 44.686 1215.32 42.267 1214.09 39.479C1212.94 36.609 1212.37 33.247 1212.37 29.393C1212.37 23.735 1213.47 19.061 1215.69 15.371C1217.9 11.681 1220.69 8.77 1224.05 6.638C1227.5 4.424 1231.31 2.907 1235.49 2.087C1239.67 1.18499 1243.73 0.733994 1247.67 0.733994C1254.56 0.733994 1260.71 1.759 1266.12 3.809C1271.61 5.777 1276.86 8.688 1281.86 12.542C1282.52 13.116 1282.89 13.813 1282.97 14.633C1283.05 15.453 1282.85 16.191 1282.35 16.847L1272.76 30.5C1272.27 31.156 1271.61 31.566 1270.79 31.73C1269.97 31.894 1269.23 31.73 1268.58 31.238C1264.4 28.614 1260.5 26.769 1256.89 25.703C1253.28 24.555 1249.96 23.981 1246.93 23.981C1246.03 23.981 1244.96 24.022 1243.73 24.104C1242.58 24.104 1241.48 24.268 1240.41 24.596C1239.34 24.842 1238.44 25.293 1237.7 25.949C1237.05 26.605 1236.72 27.507 1236.72 28.655C1236.72 29.803 1237.58 30.828 1239.3 31.73C1241.03 32.632 1242.99 33.411 1245.21 34.067C1247.42 34.723 1249.55 35.256 1251.6 35.666C1253.65 35.994 1254.97 36.199 1255.54 36.281C1258.49 36.855 1261.73 37.716 1265.26 38.864C1268.78 39.93 1272.06 41.57 1275.1 43.784C1278.21 45.916 1280.8 48.745 1282.85 52.271C1284.98 55.715 1286.04 60.061 1286.04 65.309C1286.04 70.229 1285.18 74.493 1283.46 78.101C1281.74 81.627 1279.32 84.538 1276.2 86.834C1273.17 89.13 1269.48 90.852 1265.13 92C1260.87 93.066 1256.11 93.599 1250.87 93.599C1246.6 93.599 1242.62 93.23 1238.93 92.492C1235.24 91.836 1231.8 90.893 1228.6 89.663C1225.4 88.433 1222.41 86.998 1219.62 85.358C1216.92 83.636 1214.42 81.832 1212.12 79.946C1211.46 79.454 1211.1 78.798 1211.01 77.978C1210.93 77.076 1211.14 76.297 1211.63 75.641L1221.1 61.988C1221.59 61.332 1222.25 60.922 1223.07 60.758C1223.89 60.594 1224.63 60.717 1225.28 61.127Z" fill="url(#paint0_linear_1_5)"/>
<path d="M1192.95 4.916V89.048C1192.95 89.868 1192.66 90.565 1192.08 91.139C1191.51 91.713 1190.81 92 1189.99 92H1171.79C1170.97 92 1170.11 91.754 1169.21 91.262C1168.3 90.77 1167.61 90.196 1167.12 89.54L1135.01 44.399C1134.52 43.743 1133.99 43.497 1133.41 43.661C1132.92 43.743 1132.68 44.194 1132.68 45.014V89.048C1132.68 89.868 1132.39 90.565 1131.81 91.139C1131.24 91.713 1130.54 92 1129.72 92H1111.4C1110.58 92 1109.88 91.713 1109.31 91.139C1108.73 90.565 1108.44 89.868 1108.44 89.048V4.916C1108.44 4.09599 1108.73 3.39899 1109.31 2.82499C1109.88 2.25099 1110.58 1.96399 1111.4 1.96399H1129.85C1130.67 1.96399 1131.53 2.20999 1132.43 2.70199C1133.33 3.11199 1134.03 3.64499 1134.52 4.30099L1166.5 49.442C1166.99 50.098 1167.48 50.385 1167.98 50.303C1168.55 50.221 1168.84 49.77 1168.84 48.95V4.916C1168.84 4.09599 1169.12 3.39899 1169.7 2.82499C1170.27 2.25099 1170.97 1.96399 1171.79 1.96399H1189.99C1190.81 1.96399 1191.51 2.25099 1192.08 2.82499C1192.66 3.39899 1192.95 4.09599 1192.95 4.916Z" fill="url(#paint1_linear_1_5)"/>
<path d="M998.837 46.982C998.837 40.586 1000.07 34.559 1002.53 28.901C1004.99 23.243 1008.31 18.323 1012.49 14.141C1016.67 9.87699 1021.59 6.51499 1027.25 4.05499C1032.91 1.59499 1038.93 0.36499 1045.33 0.36499C1051.73 0.36499 1057.75 1.59499 1063.41 4.05499C1069.07 6.51499 1073.99 9.87699 1078.17 14.141C1082.44 18.323 1085.8 23.243 1088.26 28.901C1090.72 34.559 1091.95 40.586 1091.95 46.982C1091.95 53.378 1090.72 59.405 1088.26 65.063C1085.8 70.721 1082.44 75.682 1078.17 79.946C1073.99 84.128 1069.07 87.449 1063.41 89.909C1057.75 92.369 1051.73 93.599 1045.33 93.599C1038.93 93.599 1032.91 92.369 1027.25 89.909C1021.59 87.449 1016.67 84.128 1012.49 79.946C1008.31 75.682 1004.99 70.721 1002.53 65.063C1000.07 59.405 998.837 53.378 998.837 46.982ZM1023.19 46.982C1023.19 50.098 1023.76 53.05 1024.91 55.838C1026.06 58.626 1027.62 61.086 1029.59 63.218C1031.64 65.35 1034.01 67.072 1036.72 68.384C1039.43 69.614 1042.3 70.229 1045.33 70.229C1048.36 70.229 1051.23 69.614 1053.94 68.384C1056.65 67.072 1059.02 65.35 1061.07 63.218C1063.12 61.086 1064.72 58.626 1065.87 55.838C1067.02 53.05 1067.59 50.098 1067.59 46.982C1067.59 43.948 1067.02 41.037 1065.87 38.249C1064.72 35.379 1063.12 32.919 1061.07 30.869C1059.02 28.737 1056.65 27.056 1053.94 25.826C1051.23 24.514 1048.36 23.858 1045.33 23.858C1042.3 23.858 1039.43 24.514 1036.72 25.826C1034.01 27.056 1031.64 28.737 1029.59 30.869C1027.62 32.919 1026.06 35.379 1024.91 38.249C1023.76 41.037 1023.19 43.948 1023.19 46.982Z" fill="url(#paint2_linear_1_5)"/>
<path d="M979.791 92H961.218C960.316 92 959.578 91.713 959.004 91.139C958.512 90.565 958.266 89.868 958.266 89.048V5.039C958.266 4.219 958.512 3.522 959.004 2.948C959.578 2.374 960.316 2.08701 961.218 2.08701H979.791C980.611 2.08701 981.308 2.374 981.882 2.948C982.456 3.522 982.743 4.219 982.743 5.039V89.048C982.743 89.868 982.456 90.565 981.882 91.139C981.308 91.713 980.611 92 979.791 92Z" fill="url(#paint3_linear_1_5)"/>
<path d="M941.16 24.596H923.94C923.12 24.596 922.423 24.883 921.849 25.457C921.275 26.031 920.988 26.728 920.988 27.548V89.048C920.988 89.868 920.701 90.565 920.127 91.139C919.635 91.713 918.938 92 918.036 92H899.586C898.766 92 898.069 91.713 897.495 91.139C896.921 90.565 896.634 89.868 896.634 89.048V27.548C896.634 26.728 896.347 26.031 895.773 25.457C895.281 24.883 894.584 24.596 893.682 24.596H876.216C875.396 24.596 874.699 24.309 874.125 23.735C873.551 23.161 873.264 22.464 873.264 21.644V4.916C873.264 4.09599 873.551 3.39899 874.125 2.82499C874.699 2.25099 875.396 1.96399 876.216 1.96399H941.16C942.062 1.96399 942.759 2.25099 943.251 2.82499C943.825 3.39899 944.112 4.09599 944.112 4.916V21.644C944.112 22.464 943.825 23.161 943.251 23.735C942.759 24.309 942.062 24.596 941.16 24.596Z" fill="url(#paint4_linear_1_5)"/>
<path d="M781.498 5.039C781.498 4.219 781.785 3.522 782.359 2.948C782.933 2.374 783.63 2.08701 784.45 2.08701H803.023C803.843 2.08701 804.54 2.374 805.114 2.948C805.688 3.522 805.975 4.219 805.975 5.039V54.854C805.975 58.052 806.467 60.717 807.451 62.849C808.517 64.899 809.788 66.539 811.264 67.769C812.822 68.917 814.462 69.737 816.184 70.229C817.906 70.721 819.464 70.967 820.858 70.967C822.252 70.967 823.81 70.721 825.532 70.229C827.254 69.737 828.853 68.917 830.329 67.769C831.805 66.539 833.035 64.899 834.019 62.849C835.085 60.717 835.618 58.052 835.618 54.854V5.039C835.618 4.219 835.905 3.522 836.479 2.948C837.053 2.374 837.75 2.08701 838.57 2.08701H857.143C857.963 2.08701 858.66 2.374 859.234 2.948C859.808 3.522 860.095 4.219 860.095 5.039V54.854C860.095 60.676 859.152 65.965 857.266 70.721C855.462 75.477 852.838 79.536 849.394 82.898C845.95 86.26 841.809 88.884 836.971 90.77C832.133 92.574 826.762 93.476 820.858 93.476C814.954 93.476 809.583 92.574 804.745 90.77C799.907 88.884 795.766 86.26 792.322 82.898C788.878 79.536 786.213 75.477 784.327 70.721C782.441 65.965 781.498 60.676 781.498 54.854V5.039Z" fill="url(#paint5_linear_1_5)"/>
<path d="M773.135 72.32V89.048C773.135 89.868 772.848 90.565 772.274 91.139C771.7 91.713 771.003 92 770.183 92H708.806C707.904 92 707.166 91.713 706.592 91.139C706.1 90.565 705.854 89.868 705.854 89.048V4.916C705.854 4.09599 706.1 3.39899 706.592 2.82499C707.166 2.25099 707.904 1.96399 708.806 1.96399H727.256C728.076 1.96399 728.773 2.25099 729.347 2.82499C729.921 3.39899 730.208 4.09599 730.208 4.916V66.416C730.208 67.236 730.454 67.933 730.946 68.507C731.52 69.081 732.258 69.368 733.16 69.368H770.183C771.003 69.368 771.7 69.655 772.274 70.229C772.848 70.803 773.135 71.5 773.135 72.32Z" fill="url(#paint6_linear_1_5)"/>
<path d="M596.492 46.982C596.492 40.586 597.722 34.559 600.182 28.901C602.642 23.243 605.963 18.323 610.145 14.141C614.327 9.87699 619.247 6.51499 624.905 4.05499C630.563 1.59499 636.59 0.36499 642.986 0.36499C649.382 0.36499 655.409 1.59499 661.067 4.05499C666.725 6.51499 671.645 9.87699 675.827 14.141C680.091 18.323 683.453 23.243 685.913 28.901C688.373 34.559 689.603 40.586 689.603 46.982C689.603 53.378 688.373 59.405 685.913 65.063C683.453 70.721 680.091 75.682 675.827 79.946C671.645 84.128 666.725 87.449 661.067 89.909C655.409 92.369 649.382 93.599 642.986 93.599C636.59 93.599 630.563 92.369 624.905 89.909C619.247 87.449 614.327 84.128 610.145 79.946C605.963 75.682 602.642 70.721 600.182 65.063C597.722 59.405 596.492 53.378 596.492 46.982ZM620.846 46.982C620.846 50.098 621.42 53.05 622.568 55.838C623.716 58.626 625.274 61.086 627.242 63.218C629.292 65.35 631.67 67.072 634.376 68.384C637.082 69.614 639.952 70.229 642.986 70.229C646.02 70.229 648.89 69.614 651.596 68.384C654.302 67.072 656.68 65.35 658.73 63.218C660.78 61.086 662.379 58.626 663.527 55.838C664.675 53.05 665.249 50.098 665.249 46.982C665.249 43.948 664.675 41.037 663.527 38.249C662.379 35.379 660.78 32.919 658.73 30.869C656.68 28.737 654.302 27.056 651.596 25.826C648.89 24.514 646.02 23.858 642.986 23.858C639.952 23.858 637.082 24.514 634.376 25.826C631.67 27.056 629.292 28.737 627.242 30.869C625.274 32.919 623.716 35.379 622.568 38.249C621.42 41.037 620.846 43.948 620.846 46.982Z" fill="url(#paint7_linear_1_5)"/>
<path d="M523.346 61.127C527.774 63.997 532.161 66.252 536.507 67.892C540.853 69.532 544.912 70.352 548.684 70.352C552.292 70.352 555.038 69.86 556.924 68.876C558.81 67.81 559.754 66.252 559.754 64.202C559.754 63.136 559.343 62.316 558.523 61.742C557.703 61.086 556.597 60.553 555.203 60.143C553.891 59.733 552.332 59.405 550.528 59.159C548.724 58.913 546.88 58.585 544.994 58.175C543.19 57.847 541.058 57.478 538.598 57.068C536.22 56.576 533.76 55.92 531.218 55.1C528.676 54.198 526.133 53.091 523.591 51.779C521.131 50.467 518.918 48.786 516.95 46.736C514.982 44.686 513.383 42.267 512.153 39.479C511.005 36.609 510.43 33.247 510.43 29.393C510.43 23.735 511.538 19.061 513.752 15.371C515.966 11.681 518.753 8.77 522.115 6.638C525.559 4.424 529.372 2.907 533.554 2.087C537.736 1.18499 541.796 0.733994 545.731 0.733994C552.619 0.733994 558.77 1.759 564.182 3.809C569.676 5.777 574.924 8.688 579.926 12.542C580.582 13.116 580.951 13.813 581.033 14.633C581.115 15.453 580.909 16.191 580.417 16.847L570.823 30.5C570.331 31.156 569.676 31.566 568.856 31.73C568.036 31.894 567.297 31.73 566.641 31.238C562.459 28.614 558.564 26.769 554.956 25.703C551.348 24.555 548.028 23.981 544.994 23.981C544.092 23.981 543.026 24.022 541.796 24.104C540.648 24.104 539.54 24.268 538.474 24.596C537.408 24.842 536.506 25.293 535.768 25.949C535.112 26.605 534.784 27.507 534.784 28.655C534.784 29.803 535.645 30.828 537.367 31.73C539.089 32.632 541.057 33.411 543.271 34.067C545.485 34.723 547.617 35.256 549.667 35.666C551.717 35.994 553.03 36.199 553.604 36.281C556.556 36.855 559.794 37.716 563.32 38.864C566.846 39.93 570.127 41.57 573.161 43.784C576.277 45.916 578.859 48.745 580.909 52.271C583.041 55.715 584.107 60.061 584.107 65.309C584.107 70.229 583.247 74.493 581.525 78.101C579.803 81.627 577.384 84.538 574.268 86.834C571.234 89.13 567.543 90.852 563.198 92C558.934 93.066 554.177 93.599 548.929 93.599C544.665 93.599 540.689 93.23 536.999 92.492C533.309 91.836 529.864 90.893 526.666 89.663C523.468 88.433 520.475 86.998 517.687 85.358C514.981 83.636 512.481 81.832 510.185 79.946C509.529 79.454 509.16 78.798 509.078 77.978C508.996 77.076 509.2 76.297 509.692 75.641L519.164 61.988C519.656 61.332 520.312 60.922 521.132 60.758C521.952 60.594 522.69 60.717 523.346 61.127Z" fill="url(#paint8_linear_1_5)"/>
<path d="M396.591 92H378.264C377.444 92 376.747 91.713 376.173 91.139C375.599 90.565 375.312 89.868 375.312 89.048V4.916C375.312 4.09599 375.599 3.39899 376.173 2.82499C376.747 2.25099 377.444 1.96399 378.264 1.96399H416.517C421.273 1.96399 425.66 2.78399 429.678 4.42399C433.696 5.98199 437.099 8.19599 439.887 11.066C442.757 13.936 444.971 17.339 446.529 21.275C448.169 25.211 448.989 29.557 448.989 34.313C448.989 36.937 448.661 39.561 448.005 42.185C447.431 44.727 446.57 47.146 445.422 49.442C444.274 51.738 442.921 53.829 441.363 55.715C439.805 57.519 438.042 59.036 436.074 60.266C435.418 60.758 434.967 61.373 434.721 62.111C434.557 62.767 434.721 63.423 435.213 64.079C438.329 68.179 441.609 72.402 445.053 76.748C448.497 81.094 451.572 85.071 454.278 88.679C454.77 89.335 454.893 90.073 454.647 90.893C454.401 91.631 453.868 92 453.048 92H430.17C429.35 92 428.448 91.795 427.464 91.385C426.562 90.893 425.865 90.319 425.373 89.663C422.749 86.219 420.125 82.734 417.501 79.208C414.959 75.682 412.417 72.115 409.875 68.507C409.383 67.851 408.686 67.318 407.784 66.908C406.882 66.416 406.021 66.17 405.201 66.17H402.495C401.675 66.17 400.978 66.457 400.404 67.031C399.83 67.605 399.543 68.302 399.543 69.122V89.048C399.543 89.868 399.256 90.565 398.682 91.139C398.108 91.713 397.411 92 396.591 92ZM402.495 43.538H415.533C416.517 43.538 417.542 43.374 418.608 43.046C419.674 42.636 420.658 42.062 421.56 41.324C422.462 40.504 423.2 39.52 423.774 38.372C424.348 37.224 424.635 35.871 424.635 34.313C424.635 33.493 424.471 32.55 424.143 31.484C423.897 30.336 423.405 29.27 422.667 28.286C422.011 27.22 421.068 26.359 419.838 25.703C418.69 24.965 417.255 24.596 415.533 24.596H402.495C401.675 24.596 400.978 24.883 400.404 25.457C399.83 26.031 399.543 26.728 399.543 27.548V40.586C399.543 41.406 399.83 42.103 400.404 42.677C400.978 43.251 401.675 43.538 402.495 43.538Z" fill="url(#paint9_linear_1_5)"/>
<path d="M306.298 4.793C306.626 4.055 307.159 3.44 307.897 2.948C308.717 2.374 309.578 2.08701 310.48 2.08701H327.7C328.52 2.08701 329.299 2.374 330.037 2.948C330.857 3.44 331.431 4.055 331.759 4.793L367.675 88.433C368.003 89.171 367.921 89.95 367.429 90.77C367.019 91.59 366.158 92 364.846 92H343.813C342.911 92 342.05 91.754 341.23 91.262C340.492 90.688 339.918 90.032 339.508 89.294L336.187 81.914C335.777 81.176 335.162 80.561 334.342 80.069C333.604 79.495 332.825 79.208 332.005 79.208H306.052C305.15 79.208 304.289 79.495 303.469 80.069C302.731 80.561 302.198 81.176 301.87 81.914L298.426 89.294C298.098 90.032 297.524 90.688 296.704 91.262C295.966 91.754 295.187 92 294.367 92H273.211C272.801 92 272.391 91.918 271.981 91.754C271.489 91.59 271.12 91.344 270.874 91.016C270.546 90.688 270.341 90.278 270.259 89.786C270.177 89.294 270.3 88.72 270.628 88.064L306.298 4.793ZM313.555 58.298H324.502C325.322 58.298 325.896 58.052 326.224 57.56C326.634 56.986 326.634 56.33 326.224 55.592C325.404 53.542 324.42 51.164 323.272 48.458C322.124 45.67 321.058 43.087 320.074 40.709C319.746 39.971 319.377 39.602 318.967 39.602C318.557 39.602 318.188 39.971 317.86 40.709L311.71 55.592C311.382 56.33 311.382 56.986 311.71 57.56C312.038 58.052 312.653 58.298 313.555 58.298Z" fill="url(#paint10_linear_1_5)"/>
<path d="M264.641 72.32V89.048C264.641 89.868 264.354 90.565 263.78 91.139C263.206 91.713 262.509 92 261.689 92H200.312C199.41 92 198.672 91.713 198.098 91.139C197.606 90.565 197.36 89.868 197.36 89.048V4.916C197.36 4.09599 197.606 3.39899 198.098 2.82499C198.672 2.25099 199.41 1.96399 200.312 1.96399H218.762C219.582 1.96399 220.279 2.25099 220.853 2.82499C221.427 3.39899 221.714 4.09599 221.714 4.916V66.416C221.714 67.236 221.96 67.933 222.452 68.507C223.026 69.081 223.764 69.368 224.666 69.368H261.689C262.509 69.368 263.206 69.655 263.78 70.229C264.354 70.803 264.641 71.5 264.641 72.32Z" fill="url(#paint11_linear_1_5)"/>
<path d="M87.9976 46.982C87.9976 40.586 89.2276 34.559 91.6876 28.901C94.1476 23.243 97.4686 18.323 101.651 14.141C105.833 9.87699 110.753 6.51499 116.411 4.05499C122.069 1.59499 128.096 0.36499 134.492 0.36499C140.888 0.36499 146.915 1.59499 152.573 4.05499C158.231 6.51499 163.151 9.87699 167.333 14.141C171.597 18.323 174.959 23.243 177.419 28.901C179.879 34.559 181.109 40.586 181.109 46.982C181.109 53.378 179.879 59.405 177.419 65.063C174.959 70.721 171.597 75.682 167.333 79.946C163.151 84.128 158.231 87.449 152.573 89.909C146.915 92.369 140.888 93.599 134.492 93.599C128.096 93.599 122.069 92.369 116.411 89.909C110.753 87.449 105.833 84.128 101.651 79.946C97.4686 75.682 94.1476 70.721 91.6876 65.063C89.2276 59.405 87.9976 53.378 87.9976 46.982ZM112.352 46.982C112.352 50.098 112.926 53.05 114.074 55.838C115.222 58.626 116.78 61.086 118.748 63.218C120.798 65.35 123.176 67.072 125.882 68.384C128.588 69.614 131.458 70.229 134.492 70.229C137.526 70.229 140.396 69.614 143.102 68.384C145.808 67.072 148.186 65.35 150.236 63.218C152.286 61.086 153.885 58.626 155.033 55.838C156.181 53.05 156.755 50.098 156.755 46.982C156.755 43.948 156.181 41.037 155.033 38.249C153.885 35.379 152.286 32.919 150.236 30.869C148.186 28.737 145.808 27.056 143.102 25.826C140.396 24.514 137.526 23.858 134.492 23.858C131.458 23.858 128.588 24.514 125.882 25.826C123.176 27.056 120.798 28.737 118.748 30.869C116.78 32.919 115.222 35.379 114.074 38.249C112.926 41.037 112.352 43.948 112.352 46.982Z" fill="url(#paint12_linear_1_5)"/>
<path d="M14.851 61.127C19.279 63.997 23.666 66.252 28.012 67.892C32.358 69.532 36.417 70.352 40.189 70.352C43.797 70.352 46.544 69.86 48.43 68.876C50.316 67.81 51.259 66.252 51.259 64.202C51.259 63.136 50.849 62.316 50.029 61.742C49.209 61.086 48.102 60.553 46.708 60.143C45.396 59.733 43.838 59.405 42.034 59.159C40.23 58.913 38.385 58.585 36.499 58.175C34.695 57.847 32.563 57.478 30.103 57.068C27.725 56.576 25.265 55.92 22.723 55.1C20.181 54.198 17.639 53.091 15.097 51.779C12.637 50.467 10.423 48.786 8.455 46.736C6.487 44.686 4.888 42.267 3.658 39.479C2.51 36.609 1.936 33.247 1.936 29.393C1.936 23.735 3.043 19.061 5.257 15.371C7.471 11.681 10.259 8.77 13.621 6.638C17.065 4.424 20.878 2.907 25.06 2.087C29.242 1.18499 33.301 0.733994 37.237 0.733994C44.125 0.733994 50.275 1.759 55.687 3.809C61.181 5.777 66.429 8.688 71.431 12.542C72.087 13.116 72.456 13.813 72.538 14.633C72.62 15.453 72.415 16.191 71.923 16.847L62.329 30.5C61.837 31.156 61.181 31.566 60.361 31.73C59.541 31.894 58.803 31.73 58.147 31.238C53.965 28.614 50.07 26.769 46.462 25.703C42.854 24.555 39.533 23.981 36.499 23.981C35.597 23.981 34.531 24.022 33.301 24.104C32.153 24.104 31.046 24.268 29.98 24.596C28.914 24.842 28.012 25.293 27.274 25.949C26.618 26.605 26.29 27.507 26.29 28.655C26.29 29.803 27.151 30.828 28.873 31.73C30.595 32.632 32.563 33.411 34.777 34.067C36.991 34.723 39.123 35.256 41.173 35.666C43.223 35.994 44.535 36.199 45.109 36.281C48.061 36.855 51.3 37.716 54.826 38.864C58.352 39.93 61.632 41.57 64.666 43.784C67.782 45.916 70.365 48.745 72.415 52.271C74.547 55.715 75.613 60.061 75.613 65.309C75.613 70.229 74.752 74.493 73.03 78.101C71.308 81.627 68.889 84.538 65.773 86.834C62.739 89.13 59.049 90.852 54.703 92C50.439 93.066 45.683 93.599 40.435 93.599C36.171 93.599 32.194 93.23 28.504 92.492C24.814 91.836 21.37 90.893 18.172 89.663C14.974 88.433 11.981 86.998 9.193 85.358C6.487 83.636 3.986 81.832 1.69 79.946C1.034 79.454 0.665001 78.798 0.583001 77.978C0.501001 77.076 0.706001 76.297 1.198 75.641L10.669 61.988C11.161 61.332 11.817 60.922 12.637 60.758C13.457 60.594 14.195 60.717 14.851 61.127Z" fill="url(#paint13_linear_1_5)"/>
</g>
<defs>
<linearGradient id="paint0_linear_1_5" x1="837.937" y1="23.5148" x2="838.712" y2="103.792" gradientUnits="userSpaceOnUse">
<stop stop-color="white"/>
<stop offset="1" stop-color="white" stop-opacity="0"/>
</linearGradient>
<linearGradient id="paint1_linear_1_5" x1="688.394" y1="24.0509" x2="689.04" y2="101.885" gradientUnits="userSpaceOnUse">
<stop stop-color="white"/>
<stop offset="1" stop-color="white" stop-opacity="0"/>
</linearGradient>
<linearGradient id="paint2_linear_1_5" x1="535.985" y1="23.2364" x2="536.615" y2="103.835" gradientUnits="userSpaceOnUse">
<stop stop-color="white"/>
<stop offset="1" stop-color="white" stop-opacity="0"/>
</linearGradient>
<linearGradient id="paint3_linear_1_5" x1="836.591" y1="24.1437" x2="838.817" y2="101.813" gradientUnits="userSpaceOnUse">
<stop stop-color="white"/>
<stop offset="1" stop-color="white" stop-opacity="0"/>
</linearGradient>
<linearGradient id="paint4_linear_1_5" x1="521.081" y1="24.0509" x2="521.853" y2="101.882" gradientUnits="userSpaceOnUse">
<stop stop-color="white"/>
<stop offset="1" stop-color="white" stop-opacity="0"/>
</linearGradient>
<linearGradient id="paint5_linear_1_5" x1="390.795" y1="24.5058" x2="391.511" y2="103.508" gradientUnits="userSpaceOnUse">
<stop stop-color="white"/>
<stop offset="1" stop-color="white" stop-opacity="0"/>
</linearGradient>
<linearGradient id="paint6_linear_1_5" x1="371.403" y1="24.0509" x2="372.215" y2="101.882" gradientUnits="userSpaceOnUse">
<stop stop-color="white"/>
<stop offset="1" stop-color="white" stop-opacity="0"/>
</linearGradient>
<linearGradient id="paint7_linear_1_5" x1="133.641" y1="23.2364" x2="134.27" y2="103.835" gradientUnits="userSpaceOnUse">
<stop stop-color="white"/>
<stop offset="1" stop-color="white" stop-opacity="0"/>
</linearGradient>
<linearGradient id="paint8_linear_1_5" x1="136.001" y1="23.5148" x2="136.776" y2="103.792" gradientUnits="userSpaceOnUse">
<stop stop-color="white"/>
<stop offset="1" stop-color="white" stop-opacity="0"/>
</linearGradient>
<linearGradient id="paint9_linear_1_5" x1="-19.6707" y1="24.0509" x2="-18.9828" y2="101.884" gradientUnits="userSpaceOnUse">
<stop stop-color="white"/>
<stop offset="1" stop-color="white" stop-opacity="0"/>
</linearGradient>
<linearGradient id="paint10_linear_1_5" x1="-215.118" y1="24.1437" x2="-214.56" y2="101.873" gradientUnits="userSpaceOnUse">
<stop stop-color="white"/>
<stop offset="1" stop-color="white" stop-opacity="0"/>
</linearGradient>
<linearGradient id="paint11_linear_1_5" x1="-137.091" y1="24.0509" x2="-136.279" y2="101.882" gradientUnits="userSpaceOnUse">
<stop stop-color="white"/>
<stop offset="1" stop-color="white" stop-opacity="0"/>
</linearGradient>
<linearGradient id="paint12_linear_1_5" x1="-374.854" y1="23.2364" x2="-374.224" y2="103.835" gradientUnits="userSpaceOnUse">
<stop stop-color="white"/>
<stop offset="1" stop-color="white" stop-opacity="0"/>
</linearGradient>
<linearGradient id="paint13_linear_1_5" x1="-372.493" y1="23.5148" x2="-371.719" y2="103.792" gradientUnits="userSpaceOnUse">
<stop stop-color="white"/>
<stop offset="1" stop-color="white" stop-opacity="0"/>
</linearGradient>
</defs>
</svg>
